<?xml version="1.0" encoding="utf-8"?>
<!-- Generator: Adobe Illustrator 16.0.0, SVG Export Plug-In . SVG Version: 6.00 Build 0)  -->
<!DOCTYPE svg PUBLIC "-//W3C//DTD SVG 1.1//EN" "http://www.w3.org/Graphics/SVG/1.1/DTD/svg11.dtd">
<svg version="1.1" id="Layer_1" xmlns="http://www.w3.org/2000/svg" xmlns:xlink="http://www.w3.org/1999/xlink" x="0px" y="0px"
	 width="58.346px" height="64px" viewBox="0 0 58.346 64" enable-background="new 0 0 58.346 64" xml:space="preserve">
<g>
	<g>
		<path fill="#E8966B" d="M0,0h32.392c3.15,0,5.965,0.473,8.443,1.415c2.478,0.943,4.565,2.202,6.261,3.777
			c1.696,1.575,2.996,3.407,3.898,5.492c0.902,2.087,1.354,4.261,1.354,6.523c0,2.073-0.225,3.892-0.665,5.453
			c-0.445,1.562-1.091,2.948-1.939,4.159c-0.852,1.213-1.894,2.283-3.131,3.212c-1.241,0.928-2.654,1.771-4.243,2.522
			c1.376,0.703,2.586,1.773,3.638,3.212c1.051,1.44,1.843,3.305,2.383,5.594l2.059,7.956h5.05l0.081,11.917H37.804l-2.421-14.54
			c-0.243-1.724-0.613-3.212-1.11-4.463c-0.5-1.254-1.167-2.276-2.002-3.073c-0.832-0.792-1.851-1.378-3.047-1.756
			c-1.199-0.376-2.621-0.564-4.26-0.564h-5.212v13.33h5.614v11.066H0V50.167h6.341V11.108H0V0z M19.751,11.108v14.824h8.038
			c1.535,0,2.915-0.142,4.142-0.424c1.224-0.284,2.275-0.728,3.15-1.333c0.873-0.606,1.549-1.366,2.019-2.281
			c0.473-0.916,0.705-2.006,0.705-3.272c0-2.369-0.846-4.214-2.542-5.534c-1.697-1.318-4.188-1.979-7.473-1.979H19.751z"/>
	</g>
	<g>
		<path fill="#7A411E" d="M2.767,2.767h32.393c3.149,0,5.965,0.473,8.442,1.414c2.479,0.943,4.566,2.202,6.261,3.777
			c1.696,1.575,2.996,3.407,3.898,5.493c0.902,2.087,1.354,4.261,1.354,6.523c0,2.073-0.225,3.892-0.665,5.453
			c-0.445,1.562-1.091,2.948-1.939,4.159c-0.852,1.213-1.894,2.283-3.132,3.211c-1.239,0.929-2.652,1.773-4.242,2.524
			c1.376,0.702,2.587,1.771,3.638,3.212s1.843,3.304,2.383,5.594l2.059,7.956h5.05L58.346,64H40.57l-2.421-14.541
			c-0.243-1.724-0.613-3.212-1.11-4.462c-0.5-1.254-1.167-2.276-2.002-3.073c-0.832-0.792-1.851-1.378-3.047-1.756
			c-1.2-0.376-2.621-0.564-4.261-0.564h-5.211v13.33h5.614V64H2.767V52.934h6.341V13.875H2.767V2.767z M22.518,13.875v14.824h8.038
			c1.535,0,2.916-0.142,4.142-0.424c1.224-0.284,2.274-0.728,3.149-1.333c0.873-0.606,1.549-1.366,2.019-2.281
			c0.473-0.916,0.705-2.006,0.705-3.272c0-2.369-0.846-4.214-2.542-5.534c-1.697-1.318-4.188-1.979-7.473-1.979H22.518z"/>
	</g>
	<g>
		<path fill="#CA5427" d="M1.383,1.384h32.392c3.15,0,5.966,0.473,8.443,1.415c2.477,0.943,4.566,2.202,6.26,3.777
			c1.697,1.575,2.996,3.407,3.898,5.493c0.902,2.087,1.354,4.26,1.354,6.523c0,2.074-0.224,3.892-0.664,5.453
			c-0.446,1.562-1.092,2.948-1.94,4.16c-0.851,1.213-1.894,2.283-3.131,3.212c-1.24,0.928-2.653,1.771-4.242,2.524
			c1.375,0.702,2.586,1.771,3.637,3.212c1.051,1.439,1.843,3.304,2.383,5.593l2.059,7.955h5.05l0.081,11.917H39.188l-2.421-14.54
			c-0.243-1.724-0.613-3.212-1.11-4.463c-0.5-1.252-1.167-2.274-2.002-3.071c-0.833-0.792-1.851-1.378-3.048-1.756
			c-1.199-0.376-2.62-0.565-4.261-0.565h-5.211v13.33h5.615v11.065H1.383V51.551h6.341V12.492H1.383V1.384z M21.134,12.492v14.824
			h8.039c1.534,0,2.914-0.142,4.141-0.424c1.224-0.284,2.275-0.728,3.15-1.333c0.872-0.606,1.548-1.366,2.018-2.282
			c0.474-0.916,0.706-2.006,0.706-3.271c0-2.37-0.846-4.215-2.543-5.535c-1.696-1.318-4.188-1.979-7.472-1.979H21.134z"/>
	</g>
</g>
</svg>
